<svg xmlns="http://www.w3.org/2000/svg" width="px" height="px" viewBox="0 0 57 20"><defs><clipPath id="a"><path d="M9 1h9.32v7H9Zm0 0"/></clipPath><clipPath id="b"><path d="M0 1h12v18.691H0Zm0 0"/></clipPath></defs><path d="M20.566 17.094c-1.086 0-1.914-.223-2.484-.66q-.84-.662-.84-1.88c0-.87.344-1.53 1.024-1.98q1.024-.696 2.992-.695h2.449v-.61q0-1.03-.621-1.574-.62-.54-1.797-.539-1.108.001-1.777.524-.673.509-.79 1.457h-1.21q.169-1.29 1.175-1.98 1.007-.697 2.688-.696c1.254 0 2.21.262 2.871.777q.991.764.992 2.219v2.742c0 .969.082 1.88.25 2.723h-1.445a9.3 9.3 0 0 1-.234-1.453c-.672 1.082-1.75 1.625-3.243 1.625m.387-.66c.516 0 .98-.122 1.395-.356q.639-.375.992-.984.368-.608.367-1.352v-1.168h-2.031q-1.478 0-2.2.492-.704.471-.706 1.47c0 .62.187 1.097.554 1.421q.556.475 1.63.477m6.774-7.805h1.546v1.457q.405-.744 1.243-1.184a4.14 4.14 0 0 1 1.914-.441q1.63.001 2.57.863.942.849.941 2.301v5.297h-1.546v-5.465q0-1.1-.602-1.691-.608-.61-1.715-.61-1.277 0-2.05.844-.756.833-.755 2.203v4.719h-1.546ZM39.27 7.598q-.503 0-.825-.285a1 1 0 0 1-.32-.762c0-.317.11-.57.32-.762q.322-.288.825-.289.503.001.82.29.321.286.32.76a.98.98 0 0 1-.32.763q-.317.285-.82.285m-.774 1.03h1.547v8.294h-1.547Zm4.707-3.265h1.547v11.559h-1.547Zm7.445 11.73q-1.629-.002-2.484-.66-.841-.66-.84-1.878-.001-1.307 1.024-1.98 1.025-.697 2.988-.696h2.453v-.61q0-1.03-.621-1.574c-.414-.36-1.016-.539-1.797-.539q-1.107.001-1.781.524-.673.509-.79 1.457h-1.21q.169-1.29 1.176-1.98 1.01-.697 2.687-.696c1.254 0 2.211.262 2.871.777q.994.764.992 2.219v2.742c0 .969.086 1.88.254 2.723h-1.445a8.5 8.5 0 0 1-.234-1.453q-1.009 1.624-3.243 1.625m.387-.66q.773-.001 1.395-.355.637-.375.988-.984.37-.608.371-1.352v-1.168h-2.031c-.988 0-1.719.164-2.203.492q-.704.471-.703 1.47c0 .62.183 1.097.554 1.421q.55.475 1.63.477m0 0" style="stroke:none;fill-rule:nonzero;fill:#fff;fill-opacity:1"/><g clip-path="url(#a)"><path d="M10.7 7.117c1.89-2.61 4.75-4.285 7.62-5.652-2.773.254-5.539 1.34-7.683 3.16-.38.32-.742.668-1.078 1.04q.622.679 1.14 1.452m0 0" style="stroke:none;fill-rule:nonzero;fill:#f3bf5b;fill-opacity:1"/></g><path d="M7.805 17.57a11 11 0 0 0 1.097-2.656c-.406-1.922-.226-3.898.653-5.836-.313-.683-.7-1.344-1.133-1.953C7.098 9.141 6.398 11.566 6.695 14a10.6 10.6 0 0 0 1.11 3.57m0 0" style="stroke:none;fill-rule:nonzero;fill:#f3bf5b;fill-opacity:1"/><g clip-path="url(#b)"><path d="M10.926 9.05C9.109 4.599 4.602 1.888 0 1.466 2.434 2.62 4.824 3.945 6.68 5.96c1.86 2.023 3.144 4.8 2.965 7.555-.114 1.742-.684 3.285-1.516 4.687.27.488.598.992.98 1.488q.175-.215.344-.437c2.223-2.988 2.895-6.715 1.473-10.203m0 0" style="stroke:none;fill-rule:nonzero;fill:#fff;fill-opacity:1"/></g><path d="M9.129 3.844c.93 0 1.68-.86 1.68-1.922C10.809.859 10.059 0 9.129 0c-.926 0-1.676.86-1.676 1.922s.75 1.922 1.676 1.922m0 0" style="stroke:none;fill-rule:nonzero;fill:#f3bf5b;fill-opacity:1"/></svg>