<svg xmlns="http://www.w3.org/2000/svg" width="112" height="39" viewBox="0 0 112 39" fill="none"><path d="M40.415 33.33C38.281 33.33 36.653 32.901 35.531 32.043C34.431 31.185 33.881 29.964 33.881 28.38C33.881 26.686 34.552 25.399 35.894 24.519C37.236 23.617 39.194 23.166 41.768 23.166H46.586V21.978C46.586 20.636 46.179 19.613 45.365 18.909C44.551 18.205 43.374 17.853 41.834 17.853C40.382 17.853 39.216 18.194 38.336 18.876C37.456 19.536 36.939 20.482 36.785 21.714H34.409C34.629 20.042 35.399 18.755 36.719 17.853C38.039 16.951 39.799 16.5 41.999 16.5C44.463 16.5 46.344 17.006 47.642 18.018C48.94 19.008 49.589 20.449 49.589 22.341V27.687C49.589 29.579 49.754 31.35 50.084 33H47.246C47.004 32.01 46.85 31.064 46.784 30.162C45.464 32.274 43.341 33.33 40.415 33.33ZM41.174 32.043C42.186 32.043 43.099 31.812 43.913 31.35C44.749 30.866 45.398 30.228 45.86 29.436C46.344 28.644 46.586 27.764 46.586 26.796V24.519H42.593C40.657 24.519 39.216 24.838 38.27 25.476C37.346 26.092 36.884 27.049 36.884 28.347C36.884 29.557 37.247 30.481 37.973 31.119C38.699 31.735 39.766 32.043 41.174 32.043ZM54.4838 16.83H57.5198V19.668C58.0478 18.7 58.8618 17.93 59.9618 17.358C61.0838 16.786 62.3378 16.5 63.7238 16.5C65.8578 16.5 67.5408 17.061 68.7728 18.183C70.0048 19.283 70.6208 20.779 70.6208 22.671V33H67.5848V22.341C67.5848 20.911 67.1888 19.811 66.3968 19.041C65.6048 18.249 64.4828 17.853 63.0308 17.853C61.3588 17.853 60.0168 18.403 59.0048 19.503C58.0148 20.581 57.5198 22.011 57.5198 23.793V33H54.4838V16.83ZM77.1595 14.817C76.4995 14.817 75.9605 14.63 75.5425 14.256C75.1245 13.882 74.9155 13.387 74.9155 12.771C74.9155 12.155 75.1245 11.66 75.5425 11.286C75.9605 10.912 76.4995 10.725 77.1595 10.725C77.8195 10.725 78.3585 10.912 78.7765 11.286C79.1945 11.66 79.4035 12.155 79.4035 12.771C79.4035 13.387 79.1945 13.882 78.7765 14.256C78.3585 14.63 77.8195 14.817 77.1595 14.817ZM75.6415 16.83H78.6775V33H75.6415V16.83ZM84.8936 10.461H87.9296V33H84.8936V10.461ZM99.5185 33.33C97.3845 33.33 95.7565 32.901 94.6345 32.043C93.5345 31.185 92.9845 29.964 92.9845 28.38C92.9845 26.686 93.6555 25.399 94.9975 24.519C96.3395 23.617 98.2975 23.166 100.872 23.166H105.69V21.978C105.69 20.636 105.283 19.613 104.469 18.909C103.655 18.205 102.478 17.853 100.938 17.853C99.4855 17.853 98.3195 18.194 97.4395 18.876C96.5595 19.536 96.0425 20.482 95.8885 21.714H93.5125C93.7325 20.042 94.5025 18.755 95.8225 17.853C97.1425 16.951 98.9025 16.5 101.103 16.5C103.567 16.5 105.448 17.006 106.746 18.018C108.044 19.008 108.693 20.449 108.693 22.341V27.687C108.693 29.579 108.858 31.35 109.188 33H106.35C106.108 32.01 105.954 31.064 105.888 30.162C104.568 32.274 102.445 33.33 99.5185 33.33ZM100.278 32.043C101.29 32.043 102.203 31.812 103.017 31.35C103.853 30.866 104.502 30.228 104.964 29.436C105.448 28.644 105.69 27.764 105.69 26.796V24.519H101.697C99.7605 24.519 98.3195 24.838 97.3735 25.476C96.4495 26.092 95.9875 27.049 95.9875 28.347C95.9875 29.557 96.3505 30.481 97.0765 31.119C97.8025 31.735 98.8695 32.043 100.278 32.043Z" fill="white"></path><g clip-path="url(#clip0_256_53)"><path d="M21.0206 13.8789C24.7377 8.79299 30.3539 5.5198 36.0004 2.85938C30.5458 3.35469 25.1165 5.46874 20.8994 9.01767C20.1519 9.64576 19.4448 10.3249 18.7832 11.0449C19.5963 11.9283 20.3489 12.873 21.0206 13.8789Z" fill="#F3BF5B"></path><path d="M15.3382 34.2588C16.2675 32.6401 17.0099 30.9192 17.4947 29.0809C16.6917 25.3328 17.0453 21.4826 18.7725 17.6988C18.1564 16.366 17.4038 15.0843 16.5453 13.8945C13.9493 17.8213 12.5756 22.555 13.1564 27.2988C13.4644 29.806 14.2271 32.1294 15.3382 34.2588Z" fill="#F3BF5B"></path><path d="M21.4646 17.6475C17.899 8.96661 9.0404 3.6815 0 2.85938C4.78283 5.11129 9.4798 7.69001 13.1263 11.627C16.7778 15.5692 19.303 20.987 18.9495 26.359C18.7273 29.7496 17.6111 32.7624 15.9697 35.4943C16.5051 36.4492 17.1465 37.4296 17.899 38.3998C18.1313 38.1189 18.3535 37.833 18.5758 37.5419C22.9444 31.7155 24.2626 24.4492 21.4646 17.6475Z" fill="white"></path><path d="M17.9396 7.49617C19.761 7.49617 21.2376 5.8181 21.2376 3.74809C21.2376 1.67808 19.761 0 17.9396 0C16.1182 0 14.6416 1.67808 14.6416 3.74809C14.6416 5.8181 16.1182 7.49617 17.9396 7.49617Z" fill="#F3BF5B"></path></g><defs><clipPath id="clip0_256_53"><rect width="36" height="38.4" fill="white"></rect></clipPath></defs></svg>